<?xml version="1.0" encoding="utf-8"?>
<!-- Generator: Adobe Illustrator 26.3.1, SVG Export Plug-In . SVG Version: 6.00 Build 0)  -->
<svg width="195px" height="64px" version="1.1" id="Layer_1" xmlns="http://www.w3.org/2000/svg" xmlns:xlink="http://www.w3.org/1999/xlink" x="0px" y="0px"
	 viewBox="0 0 195 64" style="enable-background:new 0 0 195 64;" xml:space="preserve">
<style type="text/css">
	.st0{fill:#41C363;}
	.st1{fill:#FFFFFF;}
</style>
<g>
	<g>
		<g>
			<path d="M32.9,54.3C17.5,49.8,3,37.7,3.7,27.6C4.4,18.4,15,14,27.7,14.8C11.8,12.1,0.5,18.4,0.3,28.7C0,40.3,16.1,54.8,32.9,60.1
				L32.9,54.3z"/>
		</g>
		<g>
			<path class="st0" d="M33,45.4c0,0-10-5.2-13.9-8.2c2.6,1.4,13.9,6.1,13.9,6.1v-1.9c0,0-9.3-4.6-14.4-8.5
				c6.7,3.4,14.4,6.3,14.4,6.3l0-2c0,0-7.7-3.2-14.6-8.1c8.2,4,14.6,5.6,14.6,5.6v-1.9c-15.4-4.5-24.8-14-25.8-20.8
				c-1.3-9,7.9-10.8,20.6-10.1C12-0.8,0.1,1.4,0.1,15.1c0,11.6,16.1,26.3,32.9,31.6L33,45.4L33,45.4z"/>
		</g>
		<g>
			<path d="M33.1,9.7C48.5,14.2,63,26.3,62.2,36.4C61.6,45.6,51,50,38.3,49.2c15.9,2.7,27.2-3.7,27.5-13.9C66,23.7,50,9.2,33.1,3.9
				V9.7z"/>
		</g>
		<g>
			<path class="st0" d="M33,18.6c0,0,10,5.2,13.9,8.2C44.3,25.5,33,20.8,33,20.8v1.9c0,0,9.3,4.6,14.4,8.5
				C40.6,27.8,33,24.9,33,24.9v2c0,0,7.7,3.2,14.6,8.1C39.4,31,33,29.4,33,29.4v1.9c15.4,4.5,24.8,14,25.8,20.8
				c1.3,9-7.9,10.8-20.6,10.1c15.9,2.7,27.7,0.4,27.7-13.3c0-11.6-16.1-26.3-32.9-31.6C33,17.3,33,18.6,33,18.6z"/>
		</g>
	</g>
	<polygon class="st0" points="82,50.3 82,63.2 190.7,63.2 194.9,50.3 	"/>
	<g>
		<path class="st1" d="M94.4,58.6h-2.2l-0.5,1.7h-1.4l2.4-7H94l2.4,7h-1.4L94.4,58.6z M92.6,57.4H94l-0.7-2.4L92.6,57.4z"/>
		<path class="st1" d="M102.5,53.2v7h-1.4l-2.6-4.6v4.6h-1.3v-7h1.4l2.6,4.6v-4.6H102.5z"/>
		<path class="st1" d="M110.1,58.6h-2.2l-0.5,1.7h-1.4l2.4-7h1.3l2.4,7h-1.4L110.1,58.6z M108.2,57.4h1.5l-0.7-2.4L108.2,57.4z"/>
		<path class="st1" d="M113.9,60.2l-2.4-7h1.4l1.6,5.2l1.6-5.2h1.4l-2.4,7H113.9z"/>
		<path class="st1" d="M123.6,53.2v7h-1.4l-2.6-4.6v4.6h-1.3v-7h1.4l2.6,4.6v-4.6H123.6z"/>
		<path class="st1" d="M129.4,53.2v1.2h-3v1.5h2.4v1.2h-2.4V59h3.1v1.2H125v-7L129.4,53.2L129.4,53.2z"/>
		<path class="st1" d="M130.5,53.2h5.2v1.2h-2v5.8h-1.3v-5.8h-2L130.5,53.2L130.5,53.2z"/>
		<path class="st1" d="M143.8,55.5c-0.3-0.7-0.8-1.2-1.7-1.2c-1.1,0-2,0.8-2,2.4c0,1.6,0.9,2.4,2,2.4c1,0,1.5-0.5,1.7-1.2l1.2,0.3
			c-0.3,1.3-1.4,2.1-2.9,2.1c-1.8,0-3.3-1.2-3.3-3.6c0-2.3,1.6-3.6,3.3-3.6c1.5,0,2.6,0.8,2.9,2.1L143.8,55.5z"/>
		<path class="st1" d="M152.5,56.7c0,2.4-1.5,3.6-3.3,3.6s-3.3-1.2-3.3-3.6s1.5-3.6,3.3-3.6S152.5,54.3,152.5,56.7z M147.2,56.7
			c0,1.7,0.9,2.4,2,2.4s2-0.7,2-2.4c0-1.7-0.9-2.4-2-2.4S147.2,55.1,147.2,56.7z"/>
		<path class="st1" d="M153.9,53.2h1.5l1.7,4.4l1.7-4.4h1.5v7h-1.3v-4.3l-1.3,3.7h-0.9l-1.3-3.7v4.3h-1.3L153.9,53.2L153.9,53.2z"/>
		<path class="st1" d="M162.9,57.5v2.7h-1.3v-7h2.6c1.5,0,2.2,0.9,2.2,2.1c0,1.2-0.7,2.1-2.2,2.1H162.9z M165.1,55.3
			c0-0.6-0.4-0.9-0.9-0.9h-1.3v1.9h1.3C164.8,56.3,165.1,56,165.1,55.3z"/>
		<path class="st1" d="M170.4,58.6h-2.2l-0.5,1.7h-1.4l2.4-7h1.3l2.4,7h-1.4L170.4,58.6z M168.5,57.4h1.5l-0.7-2.4L168.5,57.4z"/>
		<path class="st1" d="M178.4,53.2v7H177l-2.6-4.6v4.6h-1.3v-7h1.4l2.6,4.6v-4.6H178.4z"/>
		<path class="st1" d="M180.4,53.2l1.3,2.7l1.3-2.7h1.4l-2,4v3H181v-3l-2-4H180.4z"/>
	</g>
	<g>
		<path d="M86,18.7v6.7h7.8v3.8H86v11.4h-4V14.9h17.4v3.8L86,18.7L86,18.7z"/>
		<path d="M111.4,40.6v-1.9c-1.4,1.3-3.4,2.3-5.5,2.3c-3.3,0-7-1.8-7-6.5c0-4.3,3.5-6.2,8.1-6.2c1.9,0,3.4,0.3,4.5,0.7v-1.4
			c0-2.1-1.3-3.3-3.8-3.3c-2.1,0-3.7,0.4-5.3,1.2l-1.5-2.9c1.9-1.1,4.1-1.7,6.9-1.7c4.5,0,7.6,2.1,7.6,6.5v13.2
			C115.3,40.6,111.4,40.6,111.4,40.6z M111.4,32.3c-1.1-0.5-2.5-0.8-4.6-0.8c-2.6,0-4.2,1.1-4.2,2.9c0,1.9,1.3,3.2,3.9,3.2
			c2.1,0,4-1.2,4.9-2.5V32.3z"/>
		<path d="M132,25.3c-0.9-0.4-1.7-0.7-3.1-0.7c-2.5,0-4,1.7-4,5v11h-4V21.3h4v1.8c0.9-1.3,2.6-2.2,4.6-2.2c1.6,0,2.6,0.3,3.4,0.8
			L132,25.3z"/>
		<path d="M149.5,40.6V29.7c0-3.9-1.5-5.3-4.2-5.3c-2.7,0-4.2,1.8-4.2,4.9v11.3h-4V21.3h4v1.8c1-1.4,3-2.2,5.1-2.2
			c4.7,0,7.2,2.9,7.2,8.6v11C153.4,40.6,149.5,40.6,149.5,40.6z"/>
		<path d="M175.5,32.3h-13.4c0.4,3.7,2.6,5.3,5.1,5.3c1.7,0,3.1-0.6,4.4-1.5l2.3,2.4c-1.8,1.6-3.9,2.5-7,2.5c-4.7,0-8.8-3.6-8.8-10
			c0-6.5,3.6-10.1,8.9-10.1c5.8,0,8.5,4.4,8.5,9.7C175.6,31.2,175.5,31.9,175.5,32.3z M166.8,24.3c-2.7,0-4.3,1.8-4.6,4.8h9.4
			C171.4,26.5,170.1,24.3,166.8,24.3z"/>
		<path d="M180.7,40.6V15.8l4-2v26.7C184.7,40.6,180.7,40.6,180.7,40.6z"/>
		<path d="M190.9,40.6V15.8l4-2v26.7C194.9,40.6,190.9,40.6,190.9,40.6z"/>
	</g>
</g>
</svg>
